<?xml version="1.0" encoding="utf-8"?>
<!-- Generator: Adobe Illustrator 25.0.0, SVG Export Plug-In . SVG Version: 6.00 Build 0)  -->
<svg version="1.1" id="Layer_1" xmlns="http://www.w3.org/2000/svg" xmlns:xlink="http://www.w3.org/1999/xlink" x="0px" y="0px"
	 viewBox="0 0 16 24" style="enable-background:new 0 0 16 24;" xml:space="preserve">
<style type="text/css">
	.st0{fill-rule:evenodd;clip-rule:evenodd;fill:#19BCFE;}
	.st1{fill-rule:evenodd;clip-rule:evenodd;fill:#09CF83;}
	.st2{fill-rule:evenodd;clip-rule:evenodd;fill:#A259FF;}
	.st3{fill-rule:evenodd;clip-rule:evenodd;fill:#F24E1E;}
	.st4{fill-rule:evenodd;clip-rule:evenodd;fill:#FF7262;}
</style>
<g transform="translate(4)">
	<circle class="st0" cx="8" cy="12" r="4"/>
	<path class="st1" d="M0,24c2.2,0,4-1.8,4-4c0-0.6,0-1.9,0-4c-1.8,0-3.1,0-4,0c-2.2,0-4,1.8-4,4S-2.2,24,0,24z"/>
	<path class="st2" d="M0,16c0.7,0,2.1,0,4,0V8C2.1,8,0.7,8,0,8c-2.2,0-4,1.8-4,4S-2.2,16,0,16z"/>
	<path class="st3" d="M0,8c0.7,0,2.1,0,4,0V0C2.1,0,0.7,0,0,0c-2.2,0-4,1.8-4,4S-2.2,8,0,8z"/>
	<path class="st4" d="M8,8H4l0,0V0h4l0,0c2.2,0,4,1.8,4,4S10.2,8,8,8z"/>
</g>
</svg>
