<?xml version="1.0" encoding="utf-8"?>
<!-- Generator: Adobe Illustrator 25.0.0, SVG Export Plug-In . SVG Version: 6.00 Build 0)  -->
<svg version="1.1" id="Layer_1" xmlns="http://www.w3.org/2000/svg" xmlns:xlink="http://www.w3.org/1999/xlink" x="0px" y="0px"
	 viewBox="0 0 46.7 45.5" style="enable-background:new 0 0 46.7 45.5;" xml:space="preserve">
<style type="text/css">
	.st0{fill:#F7C331;}
</style>
<path class="st0" d="M0,0v45.5h46.7V0H0z M1.9,1.9h42.8v41.6H1.9V1.9z M16.2,25.8l-1.5,5.8c0,0.2-0.1,0.2-0.3,0.2h-2.9
	c-0.2,0-0.2-0.1-0.2-0.3l5.5-19.3c0.1-0.4,0.2-0.7,0.2-1.6c0-0.1,0.1-0.2,0.2-0.2h4.1c0.1,0,0.2,0,0.2,0.2l6.2,21
	c0,0.2,0,0.3-0.2,0.3h-3.2c-0.2,0-0.3,0-0.3-0.2l-1.6-5.9H16.2z M21.6,22.6l-2.3-9.1l0,0c-0.4,2.3-1.4,6.1-2.3,9.1H21.6z M30.4,11.8
	c0-1.2,0.9-2,2-2c1.2,0,2,0.8,2,2c0,1.3-0.8,2-2,2S30.4,13.1,30.4,11.8z M30.6,16.2c0-0.2,0.1-0.2,0.2-0.2h3.1
	c0.2,0,0.2,0.1,0.2,0.2v15.3c0,0.2,0,0.2-0.2,0.2h-3c-0.2,0-0.3-0.1-0.3-0.3L30.6,16.2L30.6,16.2z"/>
</svg>
