<?xml version="1.0" encoding="utf-8"?>
<!-- Generator: Adobe Illustrator 25.0.0, SVG Export Plug-In . SVG Version: 6.00 Build 0)  -->
<svg version="1.1" id="Layer_1" xmlns="http://www.w3.org/2000/svg" xmlns:xlink="http://www.w3.org/1999/xlink" x="0px" y="0px"
	 viewBox="0 0 800 800" style="enable-background:new 0 0 800 800;" xml:space="preserve">
<style type="text/css">
	.st0{fill:#F7C331;}
</style>
<path class="st0" d="M284.7,357.7c-3.3-10.3-6.3-20.3-9.7-30.7s-6.3-20-9-29.7c-2.7-9.3-5-18-7.3-26H258c-3,14.3-6.7,28.7-11.3,43
	c-5,16-10,32.7-15.3,49.3c-4.3,17-9.7,32.7-14.7,46.7h84.7c-2-7-4.7-15.3-7.7-24C290.7,377.3,287.7,367.7,284.7,357.7z M570.7,348
	c-18.3-1-35.7,8.7-44.3,25.3c-4,7.7-6.3,15.7-7.3,24h70.3c8.7,0,15,0,19-0.3c2.7-0.3,5.3-1,7.7-2.7V391c0-4.3-0.7-8.3-2-12.3
	C608,360,590.3,347.3,570.7,348L570.7,348z M658.3,10H141.7C63.3,10,0,73.3,0,151.7v496.7C0,726.7,63.3,790,141.7,790h516.7
	c78.3,0,141.7-63.3,141.7-141.7V151.7C800,73.3,736.7,10,658.3,10z M423.7,560.4H354c-2.3,0.3-4.7-1.4-5.3-3.7l-27.3-80h-124
	L172,555.4c-0.7,3-3.3,5-6.3,4.7H103c-3.7,0-4.7-2-3.7-6l107.3-307.7c1-3.3,2-6.3,3.3-10.3c1.3-7,2-14.3,2-21.7
	c-0.3-1.7,1-3.3,2.7-3.7H301c2.3,0,4,1,4.3,2.7L427,555C428,558.7,427,560.4,423.7,560.4L423.7,560.4z M685.4,427.3
	c-0.7,6.3-1,11-1.4,14c-0.3,2.3-2.3,4.3-4.7,4.3c-2,0-5.7,0.3-11,0.7c-5.3,0.7-11.7,1-19.3,1c-7.7,0-15.7-1.3-24.3-1.3H519
	c1.3,10.3,4.7,20.7,10.3,29.7c6,9,14.4,16,24.3,20c13.3,5.7,28,8.7,42.7,8.3c11.7-0.4,23.3-1.3,34.6-3.7c10.4-1.3,20.3-4,29.7-7.7
	c1.7-1.3,2.7-0.7,2.7,2.7v51c0,1.3-0.3,2.7-0.7,4c-0.7,1-1.3,1.7-2.3,2.3c-10.7,4.7-21.7,8-33.3,10c-15.7,3-31.3,4.3-47.3,4
	c-25.4,0-46.7-4-64-11.7c-16.3-7-30.7-18-42-31.7c-10.6-13-18.3-27.7-23-43.7c-4.7-15.7-7-32-7-48.7c0-18,2.7-35.7,8.3-53
	c5.3-16.7,13.7-32,25-45.7c11-13.3,24.6-24,40.3-31.7c15.7-7.7,34.3-10.3,55.7-10.3c17.7-0.3,35.3,3,51.7,10.3
	c13.7,6,25.7,15,35,26.7c8.7,11.3,15.7,24,20,38c4.3,13.3,6.3,27,6.3,40.7C686,414,685.7,421,685.4,427.3L685.4,427.3z"/>
</svg>
