<?xml version="1.0" encoding="utf-8"?>
<!-- Generator: Adobe Illustrator 25.0.0, SVG Export Plug-In . SVG Version: 6.00 Build 0)  -->
<svg version="1.1" id="Layer_1" xmlns="http://www.w3.org/2000/svg" xmlns:xlink="http://www.w3.org/1999/xlink" x="0px" y="0px"
	 viewBox="0 0 256 361" style="enable-background:new 0 0 256 361;" xml:space="preserve">
<style type="text/css">
	.st0{fill:#E44F26;}
	.st1{fill:#F1672A;}
	.st2{fill:#EBEBEB;}
	.st3{fill:#FFFFFF;}
</style>
<path class="st0" d="M255.83,71.61l-23.24,260.36l-104.47,28.96L23.93,332.01L0.72,71.61H255.83L255.83,71.61z"/>
<path class="st1" d="M128.27,338.79l84.42-23.4L232.55,92.9H128.27V338.79z"/>
<path class="st2" d="M83.09,156.77h45.18v-31.94H48.19l0.76,8.57l7.85,88.01h71.47v-31.94H86.01L83.09,156.77z M90.29,237.38H58.23
	l4.47,50.15l65.42,18.16l0.15-0.04v-33.23l-0.14,0.04l-35.57-9.6L90.29,237.38L90.29,237.38z"/>
<path class="st0" d="M24.45,0.84h16.23v16.03h14.85V0.84h16.23V49.4H55.53V33.14H40.68V49.4H24.45L24.45,0.84L24.45,0.84z
	 M93.1,16.95H78.81V0.84h44.81v16.1h-14.29V49.4H93.1L93.1,16.95L93.1,16.95L93.1,16.95z M130.74,0.84h16.92l10.41,17.06l10.4-17.06
	h16.93V49.4h-16.16V25.33L158.07,42.6h-0.28l-11.17-17.26V49.4h-15.88V0.84z M193.48,0.84h16.24v32.51h22.82V49.4h-39.06
	L193.48,0.84L193.48,0.84z"/>
<path class="st3" d="M128.16,221.42h39.33l-3.71,41.42l-35.62,9.61v33.23l65.47-18.14l0.48-5.4l7.51-84.08l0.78-8.58h-74.24V221.42
	L128.16,221.42z M128.16,156.7v0.08h77.14l0.64-7.18l1.46-16.19l0.76-8.57h-80V156.7L128.16,156.7z"/>
</svg>
