<?xml version="1.0" encoding="utf-8"?>
<!-- Generator: Adobe Illustrator 25.0.0, SVG Export Plug-In . SVG Version: 6.00 Build 0)  -->
<svg version="1.1" id="Layer_1" xmlns="http://www.w3.org/2000/svg" xmlns:xlink="http://www.w3.org/1999/xlink" x="0px" y="0px"
	 viewBox="0 0 256 148" style="enable-background:new 0 0 256 148;" xml:space="preserve">
<style type="text/css">
	.st0{fill:url(#SVGID_1_);}
	.st1{fill:#6181B6;}
	.st2{fill:#FFFFFF;}
	.st3{fill:#000004;}
</style>
<g>
	
		<radialGradient id="SVGID_1_" cx="0.8366" cy="138.8304" r="363.0565" gradientTransform="matrix(0.463 0 0 -0.463 76.4644 95.4462)" gradientUnits="userSpaceOnUse">
		<stop  offset="0" style="stop-color:#FFFFFF"/>
		<stop  offset="0.5" style="stop-color:#4C6B97"/>
		<stop  offset="1" style="stop-color:#231F20"/>
	</radialGradient>
	<ellipse class="st0" cx="128" cy="74.8" rx="128" ry="67.3"/>
	<ellipse class="st1" cx="128" cy="74.8" rx="123" ry="62.3"/>
	<g>
		<path class="st2" d="M152.9,95l6.1-31.4c1.4-7.1,0.2-12.4-3.4-15.7c-3.5-3.2-9.5-4.8-18.3-4.8h-10.6l3-15.6c0.1-0.6,0-1.2-0.4-1.7
			s-0.9-0.7-1.5-0.7h-14.6c-1,0-1.8,0.7-2,1.6L104.7,60c-0.6-3.8-2-7-4.4-9.6C96,45.5,89.3,43,80.2,43H52.1c-1,0-1.8,0.7-2,1.6
			L37,112.2c-0.1,0.6,0,1.2,0.4,1.7s0.9,0.7,1.5,0.7h14.7c1,0,1.8-0.7,2-1.6l3.2-16.3h10.9c5.7,0,10.6-0.6,14.3-1.8
			c3.9-1.3,7.4-3.4,10.5-6.3c2.5-2.3,4.6-4.9,6.2-7.7l-2.6,13.5c-0.1,0.6,0,1.2,0.4,1.7s0.9,0.7,1.5,0.7h14.6c1,0,1.8-0.7,2-1.6
			l7.2-37h10c4.3,0,5.5,0.8,5.9,1.2c0.3,0.3,0.9,1.5,0.2,5.2l-5.8,29.9c-0.1,0.6,0,1.2,0.4,1.7s0.9,0.7,1.5,0.7h15
			C151.9,96.6,152.7,95.9,152.9,95z M85.3,69c-0.9,4.7-2.6,8.1-5.1,10s-6.6,2.9-12,2.9h-6.5l4.7-24.2h8.4c6.2,0,8.7,1.3,9.7,2.4
			C85.8,61.7,86.1,64.8,85.3,69z"/>
		<path class="st2" d="M215.3,50.4c-4.3-4.9-11-7.4-20.1-7.4h-28.3c-1,0-1.8,0.7-2,1.6l-13.1,67.5c-0.1,0.6,0,1.2,0.4,1.7
			s0.9,0.7,1.5,0.7h14.7c1,0,1.8-0.7,2-1.6l3.2-16.3h10.9c5.7,0,10.6-0.6,14.3-1.8c3.9-1.3,7.4-3.4,10.5-6.3c2.6-2.4,4.8-5.1,6.4-8
			c1.6-2.9,2.8-6.1,3.5-9.6C220.9,62.2,219.6,55.4,215.3,50.4z M200,69c-0.9,4.7-2.6,8.1-5.1,10s-6.6,2.9-12,2.9h-6.5l4.7-24.2h8.4
			c6.2,0,8.7,1.3,9.7,2.4C200.6,61.7,200.9,64.8,200,69z"/>
	</g>
	<g>
		<path class="st3" d="M74.8,55.7c5.6,0,9.3,1,11.2,3.1c1.9,2.1,2.3,5.6,1.3,10.6c-1,5.2-3,9-5.9,11.2s-7.3,3.3-13.2,3.3h-8.9
			l5.5-28.2H74.8z M39,112.5h14.7l3.5-17.9h12.6c5.6,0,10.1-0.6,13.7-1.8c3.6-1.2,6.8-3.1,9.8-5.9c2.5-2.3,4.5-4.8,6-7.5
			s2.6-5.7,3.2-9c1.6-8,0.4-14.2-3.5-18.7S88.9,45,80.4,45H52.1L39,112.5z"/>
		<path class="st3" d="M113.3,27.1h14.6L124.4,45h13c8.2,0,13.8,1.4,16.9,4.3c3.1,2.9,4,7.5,2.8,13.9L151,94.6h-14.8l5.8-29.9
			c0.7-3.4,0.4-5.7-0.7-6.9c-1.1-1.2-3.6-1.9-7.3-1.9h-11.7l-7.5,38.7h-14.6L113.3,27.1z"/>
		<path class="st3" d="M189.5,55.7c5.6,0,9.3,1,11.2,3.1s2.3,5.6,1.3,10.6c-1,5.2-3,9-5.9,11.2s-7.3,3.3-13.2,3.3H174l5.5-28.2
			H189.5z M153.7,112.5h14.7l3.5-17.9h12.6c5.6,0,10.1-0.6,13.7-1.8c3.6-1.2,6.8-3.1,9.8-5.9c2.5-2.3,4.5-4.8,6-7.5s2.6-5.7,3.2-9
			c1.6-8,0.4-14.2-3.5-18.7S203.6,45,195.1,45h-28.3L153.7,112.5z"/>
	</g>
</g>
</svg>
