<?xml version="1.0" encoding="utf-8"?>
<!-- Generator: Adobe Illustrator 25.0.0, SVG Export Plug-In . SVG Version: 6.00 Build 0)  -->
<svg version="1.1" id="Layer_1" xmlns="http://www.w3.org/2000/svg" xmlns:xlink="http://www.w3.org/1999/xlink" x="0px" y="0px"
	 viewBox="0 0 841.9 595.3" style="enable-background:new 0 0 841.9 595.3;" xml:space="preserve">
<style type="text/css">
	.st0{fill:#F6C230;}
</style>
<path class="st0" d="M759.7,126.9c-8.1-30.6-32.1-54.7-62.5-62.9C642,49.1,420.9,49.1,420.9,49.1s-221.1,0-276.2,14.9
	c-30.4,8.2-54.4,32.3-62.5,62.9c-14.8,55.5-14.8,171.3-14.8,171.3s0,115.8,14.8,171.3c8.1,30.6,32.1,53.7,62.5,61.9
	c55.1,14.9,276.2,14.9,276.2,14.9s221.1,0,276.2-14.9c30.4-8.2,54.4-31.3,62.5-61.9c14.8-55.5,14.8-171.3,14.8-171.3
	S774.4,182.4,759.7,126.9z M348.6,403.3V193l184.8,105.1L348.6,403.3L348.6,403.3z"/>
</svg>
