<?xml version="1.0" encoding="utf-8"?>
<!-- Generator: Adobe Illustrator 25.0.0, SVG Export Plug-In . SVG Version: 6.00 Build 0)  -->
<svg version="1.1" id="Layer_1" xmlns="http://www.w3.org/2000/svg" xmlns:xlink="http://www.w3.org/1999/xlink" x="0px" y="0px"
	 viewBox="0 0 91.5 60" style="enable-background:new 0 0 91.5 60;" xml:space="preserve">
<style type="text/css">
	.st0{fill-rule:evenodd;clip-rule:evenodd;fill:#00678C;}
	.st1{fill-rule:evenodd;clip-rule:evenodd;fill:#CE8B2C;}
</style>
<g transform="matrix(.037376 0 0 .037376 1.069994 -1.319339)">
	<path class="st0" d="M52.7,1240.4h75.2v-298l117.5,259.8c13.3,31.2,32.4,42.8,69.4,42.8s55-11.6,68.7-42.8l116.9-259.8v298h75.8
		v-298c0-28.9-11.6-42.8-35.9-50.4c-57.3-17.4-95.5-2.3-112.8,36.4l-115.1,256.9L201.3,928.5c-16.8-38.8-55.6-53.8-113.4-36.4
		c-23.7,7.5-35.3,21.4-35.3,50.4l0,298H52.7z M638.9,998h75.8v163.8c-0.6,9.2,2.9,30.1,44.1,30.6c21.4,0.6,163.2,0,164.3,0V996.8
		h75.8v267.9c0,66-81.7,80.4-119.8,81H640.8v-50.3h239c48.6-5.2,42.8-29.5,42.8-37.6v-19.7H762.3c-74.7-0.6-122.7-33.6-123.3-71.2
		v-169L638.9,998z M2265,808.2c-46.3-1.2-82.2,3.5-112.3,16.2c-8.7,3.5-22.6,3.5-23.7,14.5c4.6,4.6,5.2,12.1,9.2,18.5
		c6.9,11.6,19.1,27.2,30.1,35.3c12.2,9.3,24.3,18.5,37,26.6c22.6,13.9,48,22,70,35.9c12.7,8.1,25.5,18.5,38.2,27.2
		c6.5,4.6,10.4,12.2,18.5,15v-1.8c-4-5.2-5.2-12.7-9.2-18.5c-5.8-5.8-11.6-11-17.4-16.8c-16.8-22.6-37.6-42.3-60.2-58.4
		c-18.5-12.7-59-30.1-66.5-51.5l-1.1-1.2c12.7-1.2,27.8-5.8,39.9-9.3c19.7-5.2,37.6-4,57.8-9.2c9.3-2.3,18.5-5.2,27.8-8.1v-5.2
		c-10.4-10.4-17.9-24.3-28.9-34.1c-29.5-25.5-61.9-50.4-95.5-71.2c-17.9-11.6-41.1-19.1-60.2-28.9c-7-3.5-18.5-5.2-22.6-11
		c-10.4-12.7-16.2-29.5-23.7-44.6c-16.8-31.8-33-67.1-47.4-100.7c-10.4-22.6-16.8-45.1-29.5-66c-59.6-98.4-124.4-158-224-216.4
		c-21.4-12.2-46.9-17.4-73.9-23.7l-43.4-2.3c-9.3-4-18.5-15-26.6-20.3c-33-20.8-118.1-66-142.4-6.4c-15.6,37.6,23.2,74.6,36.3,93.7
		c9.9,13.3,22.6,28.4,29.5,43.4c3.9,9.8,5.2,20.3,9.2,30.7c9.2,25.5,17.9,53.8,30.1,77.6c6.5,12.2,13.3,24.9,21.4,35.9
		c4.6,6.4,12.7,9.3,14.5,19.7c-8.1,11.6-8.7,28.9-13.3,43.4c-20.8,65.4-12.7,146.4,16.8,194.4c9.3,14.5,31.1,46.3,60.8,34.1
		c26-10.4,20.2-43.4,27.8-72.3c1.8-6.9,0.6-11.6,4-16.2v1.2l23.7,48c17.9,28.4,49.2,57.9,75.2,77.6c13.9,10.4,24.9,28.4,42.2,34.7
		V836h-1.1c-3.5-5.2-8.7-7.5-13.3-11.6c-10.4-10.4-22-23.2-30.1-34.7c-24.3-32.4-45.7-68.3-64.8-105.3
		c-9.3-17.9-17.4-37.6-24.9-55.6c-3.5-7-3.5-17.4-9.3-20.8c-8.7,12.7-21.4,23.7-27.8,39.4c-11,24.9-12.1,55.6-16.2,87.4
		c-2.3,0.6-1.3,0-2.3,1.2c-18.5-4.6-24.9-23.7-31.8-39.9c-17.4-41.1-20.3-107.1-5.2-154.5c4-12.2,21.4-50.4,14.5-61.9
		c-3.5-11-15-17.4-21.4-26c-7.5-11-15.6-24.9-20.8-37c-13.9-32.4-20.8-68.3-35.9-100.7c-7-15-19.1-30.7-28.9-44.6
		c-11-15.6-23.1-26.6-31.8-45.1c-2.9-6.4-6.9-16.8-2.3-23.7c1.1-4.6,3.5-6.4,8.1-7.5c7.5-6.4,28.9,1.7,36.5,5.2
		c21.4,8.7,39.3,16.8,57.3,28.9c8.1,5.8,16.8,16.8,27.2,19.7h12.2c18.5,4,39.3,1.2,56.7,6.4c30.7,9.9,58.4,24.3,83.3,39.9
		c75.8,48,138.3,116.3,180.5,197.9c6.9,13.3,9.8,25.5,16.2,39.4c12.2,28.4,27.2,57.3,39.3,85.1c12.2,27.2,23.7,55,41.1,77.6
		c8.7,12.2,43.4,18.5,59,24.9c11.6,5.2,29.5,9.9,39.9,16.2c19.7,12.2,39.3,26,57.8,39.4C2234.3,782.2,2263.2,796.7,2265,808.2
		L2265,808.2z M1674.9,305.3c-8-0.1-16,0.9-23.7,2.9v1.2h1.1c4.6,9.3,12.7,15.6,18.5,23.7l13.3,27.8l1.1-1.2
		c8.1-5.8,12.2-15,12.2-28.9c-3.5-4-4-8.1-6.9-12.2C1687,312.8,1679.5,309.9,1674.9,305.3L1674.9,305.3z"/>
	<path class="st1" d="M1056.7,1240.4h217.6c25.5,0,49.8-5.2,69.4-14.5c33-15,48.6-35.3,48.6-61.9v-55.6c0-21.4-17.9-41.7-53.8-55.6
		c-18.5-6.9-41.7-11-64.2-11h-91.4c-30.7,0-45.1-9.3-49.2-29.5c-0.6-2.3-0.6-4.6-0.6-6.9v-34.2c0-1.8,0-4,0.6-6.4
		c4-15.6,12.2-19.7,38.9-22.6h222.8v-50.4h-211.8c-30.7,0-46.9,1.8-61.3,6.4c-44.6,13.9-64.2,35.9-64.2,74.6v44
		c0,34.1,38.2,63.1,103,70c6.9,0.6,14.5,0.6,22,0.6h78.1c2.9,0,5.8,0,8.1,0.6c23.7,2.3,34.2,6.4,41.1,15c4.6,4.6,5.8,8.7,5.8,13.9
		v44c0,5.2-3.5,12.2-10.4,17.9s-18,9.8-32.4,10.4c-2.9,0-4.6,0.6-7.5,0.6h-209V1240.4z M1863.4,1153.1c0,51.5,38.9,80.4,116.3,86.2
		c7.5,0.6,14.5,1.1,22,1.1h196.8v-50.3H2000c-44,0-60.8-11-60.8-37.6V892.1h-76v261L1863.4,1153.1z M1440.4,1155.4V976
		c0-45.7,32.4-73.5,95.5-82.2c6.9-0.6,13.9-1.2,20.2-1.2h143.5c7.5,0,13.9,0.6,21.4,1.2c63.1,8.7,94.9,36.4,94.9,82.2v179.4
		c0,37-13.3,56.7-44.6,70l74.1,67.1H1758l-60.2-54.4l-60.8,3.5h-81c-14.8-0.1-29.6-2-44-5.8
		C1464.1,1222.5,1440.4,1197,1440.4,1155.4z M1521.9,1151.3c0,2.3,1.3,4.6,1.8,7.5c4,20.8,23.7,32.4,53.8,32.4h68.3l-62.5-56.7h87.4
		l55,49.8c10.4-5.8,16.8-13.9,19.1-24.3c0.6-2.3,0.6-5.2,0.6-7.5V980.6c0-2.3,0-4.6-0.6-6.9c-4-19.7-23.7-30.6-53.2-30.6h-114
		c-33.6,0-55.6,14.5-55.6,37.6L1521.9,1151.3z"/>
</g>
</svg>
