<?xml version="1.0" encoding="utf-8"?>
<!-- Generator: Adobe Illustrator 25.0.0, SVG Export Plug-In . SVG Version: 6.00 Build 0)  -->
<svg version="1.1" id="Layer_1" xmlns="http://www.w3.org/2000/svg" xmlns:xlink="http://www.w3.org/1999/xlink" x="0px" y="0px"
	 viewBox="0 0 512 512" style="enable-background:new 0 0 512 512;" xml:space="preserve">
<style type="text/css">
	.st0{fill:#FDB6CF;}
	.st1{fill:#FD5E95;}
	.st2{fill:#8DECF2;}
	.st3{fill:#45CAE0;}
	.st4{fill:#F7C331;}
</style>
<polygon class="st0" points="320.9,384.2 298.8,339.9 298.8,273.1 461.2,273.1 461.2,384.2 "/>
<polygon class="st1" points="298.8,273.1 298.8,339.9 305.8,354 386.8,273.1 "/>
<polygon class="st1" points="444.1,273.1 333,384.2 389.3,384.2 461.2,312.3 461.2,273.1 "/>
<polygon class="st1" points="408.1,384.2 461.2,384.2 461.2,331.2 "/>
<polygon class="st2" points="191.1,384.2 213.2,339.9 213.2,273.1 50.8,273.1 50.8,384.2 "/>
<polygon class="st3" points="50.8,273.1 50.8,345.4 123.1,273.1 "/>
<polygon class="st3" points="183.7,273.1 72.5,384.2 127,384.2 213.2,298 213.2,273.1 "/>
<polygon class="st3" points="148,384.2 191.1,384.2 213.2,339.9 213.2,319 "/>
<path class="st4" d="M512,230.1c-0.1-2.2-1.1-4.4-2.8-5.9l-171-145.4c-5.1-4.3-13.2-0.6-13.2,6.1v85.5c0,2.1,0.8,4.2,2.3,5.7
	l25.7,25.7c4.9,4.9,13.7,1.3,13.7-5.7V179l51.9,43.3H213.2c-4.4,0-8,3.6-8,8s3.6,8,8,8H496V419h-51.8c-4.4,0-8,3.6-8,8
	c0,4.4,3.6,8,8,8H504c4.4,0,8-3.6,8-8V230.3C512,230.2,512,230.2,512,230.1z M363.7,155.8c-5.1-4.3-13.1-0.5-13.1,6.2v14.9l-9.6-9.6
	v-64.9l141.2,120h-38.6L363.7,155.8z"/>
<path class="st4" d="M409.9,419H299.4l-36.3-72.5c-2.9-5.8-11.4-5.8-14.3,0L212.6,419H16V238.3h163c4.4,0,8-3.6,8-8s-3.6-8-8-8H93.4
	l51.9-43.3v17.1c0,7,8.7,10.6,13.7,5.7l25.7-25.7c1.5-1.5,2.3-3.5,2.3-5.7V85c0-6.7-8.1-10.5-13.2-6.1L2.8,224.2
	C1.1,225.7,0,228,0,230.3V427c0,4.4,3.6,8,8,8h209.5c3,0,5.8-1.7,7.2-4.4L256,368l31.3,62.6c1.4,2.7,4.1,4.4,7.2,4.4h115.4
	c4.4,0,8-3.6,8-8C417.9,422.6,414.3,419,409.9,419z M171,167.1l-9.6,9.6v-14.9c0-6.7-8-10.4-13.1-6.2l-79.9,66.6H29.8l141.2-120
	L171,167.1L171,167.1z"/>
<path class="st4" d="M320.9,392.3h140.3c4.4,0,8-3.6,8-8V273.1c0-4.4-3.6-8-8-8H298.8c-4.4,0-8,3.6-8,8v66.9c0,1.2,0.3,2.5,0.8,3.6
	l22.1,44.3C315.1,390.5,317.9,392.3,320.9,392.3z M306.8,281.1h146.4v95.1H325.9l-19.1-38.2L306.8,281.1L306.8,281.1z"/>
<path class="st4" d="M42.8,273.1v111.2c0,4.4,3.6,8,8,8h140.3c3,0,5.8-1.7,7.2-4.4l22.1-44.3c0.6-1.1,0.8-2.3,0.8-3.6v-66.9
	c0-4.4-3.6-8-8-8H50.8C46.3,265.1,42.8,268.7,42.8,273.1z M58.8,281.1h146.4v57l-19.1,38.2H58.8V281.1z"/>
</svg>
