<?xml version="1.0" encoding="utf-8"?>
<!-- Generator: Adobe Illustrator 25.0.0, SVG Export Plug-In . SVG Version: 6.00 Build 0)  -->
<svg version="1.1" id="Layer_1" xmlns="http://www.w3.org/2000/svg" xmlns:xlink="http://www.w3.org/1999/xlink" x="0px" y="0px"
	 viewBox="0 0 512 512" style="enable-background:new 0 0 512 512;" xml:space="preserve">
<style type="text/css">
	.st0{fill:#000003;}
	.st1{fill:#020202;}
	.st2{fill:#050505;}
</style>
<path class="st0" d="M501.3,42.7c-5.9,0-10.7,4.8-10.7,10.7v21.3H448V53.3c0-5.9-4.8-10.7-10.7-10.7c-5.9,0-10.7,4.8-10.7,10.7v21.3
	H85.3V53.3c0-5.9-4.8-10.7-10.7-10.7c-5.9,0-10.7,4.8-10.7,10.7v21.3H21.3V53.3c0-5.9-4.8-10.7-10.7-10.7S0,47.4,0,53.3v405.3
	c0,5.9,4.8,10.7,10.7,10.7c5.9,0,10.7-4.8,10.7-10.7v-21.3H64v21.3c0,5.9,4.8,10.7,10.7,10.7s10.7-4.8,10.7-10.7v-21.3h341.3v21.3
	c0,5.9,4.8,10.7,10.7,10.7c5.9,0,10.7-4.8,10.7-10.7v-21.3h42.7v21.3c0,5.9,4.8,10.7,10.7,10.7c5.9,0,10.7-4.8,10.7-10.7V53.3
	C512,47.4,507.2,42.7,501.3,42.7z M64,245.3H21.3v-64H64V245.3z M21.3,266.7H64v64H21.3V266.7z M85.3,96h341.3v320H85.3V96z
	 M448,181.3h42.7v64H448L448,181.3L448,181.3z M448,266.7h42.7v64H448L448,266.7L448,266.7z M490.7,160H448V96h42.7L490.7,160
	L490.7,160z M64,96v64H21.3V96H64z M21.3,352H64v64H21.3V352z M448,416v-64h42.7v64L448,416L448,416z"/>
<path class="st0" d="M299.5,234l-29.7-17.2c-0.3-0.2-0.6-0.4-1-0.6l-29.6-17.1c-4.1-2.7-8.9-4.1-13.9-4.1c-14,0-25.4,11.4-25.4,25.4
	v71.1c0,0.4,0,0.7,0.1,1.1c0.2,4.1,1.3,8.1,3.4,11.7c4.5,7.8,13,12.7,22,12.7c4.5,0,8.9-1.2,12.7-3.4l30.8-17.8
	c0.2-0.1,0.5-0.3,0.7-0.4l29.8-17.2c4-2.2,7.3-5.5,9.6-9.5C315.8,256.5,311.6,241,299.5,234z M290.3,258c-0.4,0.6-0.9,1.2-1.5,1.5
	c0,0-0.1,0.1-0.1,0.1l-30.6,17.7c-0.2,0.1-0.5,0.3-0.7,0.4l-30.1,17.4c-0.6,0.4-1.3,0.6-2,0.6c-1.5,0-2.8-0.8-3.5-2
	c-0.4-0.6-0.6-1.3-0.6-2c0-0.3,0-0.5,0-0.8v-70.3c0-2.3,1.8-4.1,4.1-4.1c0.8,0,1.6,0.2,2.3,0.7c0.2,0.1,0.4,0.3,0.6,0.4l29.9,17.3
	c0.1,0,0.2,0.1,0.2,0.1c0.2,0.1,0.4,0.2,0.6,0.3l30,17.3C290.8,253.6,291.5,256.1,290.3,258z"/>
<path d="M311,117.3h-0.3c-5.9,0-10.7,4.8-10.7,10.7c0,5.9,4.8,10.7,10.7,10.7h0.3c5.9,0,10.7-4.8,10.7-10.7S316.9,117.3,311,117.3z"
	/>
<path class="st1" d="M394.7,117.3h-53c-5.9,0-10.7,4.8-10.7,10.7c0,5.9,4.8,10.7,10.7,10.7h53c5.9,0,10.7-4.8,10.7-10.7
	C405.3,122.1,400.6,117.3,394.7,117.3z"/>
<path class="st2" d="M170.3,373.3h-53c-5.9,0-10.7,4.8-10.7,10.7s4.8,10.7,10.7,10.7h53c5.9,0,10.7-4.8,10.7-10.7
	C181,378.1,176.2,373.3,170.3,373.3z"/>
<path class="st2" d="M201.2,373.3H201c-5.9,0-10.7,4.8-10.7,10.7s4.8,10.7,10.7,10.7h0.3c5.9,0,10.7-4.8,10.7-10.7
	C211.9,378.1,207.1,373.3,201.2,373.3z"/>
</svg>
