<?xml version="1.0" encoding="utf-8"?>
<!-- Generator: Adobe Illustrator 25.0.0, SVG Export Plug-In . SVG Version: 6.00 Build 0)  -->
<svg version="1.1" id="Layer_1" xmlns="http://www.w3.org/2000/svg" xmlns:xlink="http://www.w3.org/1999/xlink" x="0px" y="0px"
	 viewBox="0 0 235.7 303.2" style="enable-background:new 0 0 235.7 303.2;" xml:space="preserve">
<style type="text/css">
	.st0{fill:#F7C331;}
</style>
<polygon class="st0" points="194.8,25.3 0,25.3 0,0 187,0 "/>
<g>
	<path class="st0" d="M92.7,241.2c0,5.4-1.6,9.5-4.7,12.4c-3.2,2.9-7.7,4.4-13.5,4.4h-3.6v15.9h-13v-48h16.6c6.1,0,10.6,1.3,13.7,4
		C91.2,232.5,92.7,236.3,92.7,241.2z M70.9,247.4h2.4c1.9,0,3.5-0.5,4.6-1.6s1.7-2.6,1.7-4.5c0-3.2-1.8-4.9-5.4-4.9h-3.3
		C70.9,236.4,70.9,247.4,70.9,247.4z"/>
	<path class="st0" d="M131.7,259.3c0,3-0.8,5.6-2.3,7.9s-3.7,4.1-6.5,5.4s-6.2,1.9-10,1.9c-3.2,0-5.9-0.2-8-0.7
		c-2.2-0.4-4.4-1.2-6.8-2.3V260c2.5,1.3,5,2.3,7.7,3s5.1,1.1,7.4,1.1c1.9,0,3.3-0.3,4.2-1c0.9-0.7,1.3-1.5,1.3-2.6
		c0-0.7-0.2-1.2-0.5-1.7c-0.4-0.5-0.9-1-1.7-1.5c-0.8-0.5-2.9-1.5-6.4-3.1c-3.1-1.4-5.5-2.8-7-4.1c-1.6-1.3-2.7-2.9-3.5-4.6
		c-0.8-1.7-1.1-3.8-1.1-6.1c0-4.4,1.6-7.9,4.8-10.3s7.6-3.7,13.3-3.7c5,0,10,1.1,15.2,3.4l-4,10c-4.5-2.1-8.4-3.1-11.6-3.1
		c-1.7,0-2.9,0.3-3.7,0.9c-0.8,0.6-1.1,1.3-1.1,2.2s0.5,1.8,1.5,2.5s3.6,2.1,7.9,4.1c4.1,1.9,7,3.9,8.6,6
		C130.9,253.4,131.7,256.1,131.7,259.3z"/>
	<path class="st0" d="M179.9,248.9c0,8-2.2,14.2-6.6,18.5s-10.6,6.5-18.6,6.5h-15.5v-48h16.6c7.7,0,13.6,2,17.8,5.9
		C177.8,235.7,179.9,241.4,179.9,248.9z M166.4,249.3c0-4.4-0.9-7.7-2.6-9.8c-1.7-2.1-4.4-3.2-7.9-3.2h-3.8v26.9h2.9
		c3.9,0,6.8-1.1,8.7-3.4C165.5,257.5,166.4,254,166.4,249.3z"/>
</g>
<g>
	<g>
		<path class="st0" d="M121.4,108.8c0,9.9-3.1,17.5-9.3,22.7c-6.2,5.2-15,7.9-26.4,7.9h-8.4v32.7H57.9V80.2h29.4
			c11.1,0,19.6,2.4,25.4,7.2C118.5,92.2,121.4,99.3,121.4,108.8z M77.4,123.4h6.4c6,0,10.5-1.2,13.5-3.6s4.5-5.8,4.5-10.3
			c0-4.6-1.2-7.9-3.7-10.1s-6.4-3.3-11.7-3.3h-8.9C77.4,96.1,77.4,123.4,77.4,123.4z"/>
		<path class="st0" d="M186.3,151.2c0,7.2-2.5,12.7-7.5,16.5s-12.5,5.7-22.5,5.7c-5.1,0-9.5-0.3-13.1-1s-7-1.7-10.1-3v-15.8
			c3.6,1.7,7.6,3.1,12,4.2c4.5,1.1,8.4,1.7,11.8,1.7c7,0,10.4-2,10.4-6c0-1.5-0.5-2.7-1.4-3.7c-0.9-0.9-2.5-2-4.8-3.2
			s-5.3-2.6-9.1-4.2c-5.4-2.3-9.4-4.4-11.9-6.3c-2.5-1.9-4.4-4.1-5.5-6.6c-1.2-2.5-1.7-5.6-1.7-9.2c0-6.2,2.4-11.1,7.3-14.5
			s11.7-5.1,20.6-5.1c8.5,0,16.7,1.8,24.7,5.5l-5.8,13.8c-3.5-1.5-6.8-2.7-9.9-3.7c-3.1-1-6.2-1.4-9.4-1.4c-5.7,0-8.5,1.5-8.5,4.6
			c0,1.7,0.9,3.2,2.7,4.5s5.8,3.1,12,5.6c5.5,2.2,9.5,4.3,12.1,6.2s4.4,4.1,5.7,6.7C185.7,144.7,186.3,147.7,186.3,151.2z"/>
	</g>
</g>
<polygon class="st0" points="187,50.5 237.5,50.5 187,0 "/>
<rect x="233.8" y="50.5" class="st0" width="1.8" height="252.7"/>
<rect x="0.6" y="23.8" class="st0" width="1.8" height="279.4"/>
<rect x="117.7" y="185.3" transform="matrix(6.123234e-17 -1 1 6.123234e-17 -183.7359 420.8642)" class="st0" width="1.8" height="234.1"/>
</svg>
