<?xml version="1.0" encoding="utf-8"?>
<!-- Generator: Adobe Illustrator 25.0.0, SVG Export Plug-In . SVG Version: 6.00 Build 0)  -->
<svg version="1.1" id="Layer_1" xmlns="http://www.w3.org/2000/svg" xmlns:xlink="http://www.w3.org/1999/xlink" x="0px" y="0px"
	 viewBox="0 0 502.6 502.6" style="enable-background:new 0 0 502.6 502.6;" xml:space="preserve">
<style type="text/css">
	.st0{fill:#F7C331;}
	.st1{fill:#FFD15C;}
</style>
<path class="st0" d="M460.8,383l-21.9,15.7l-14.6,10.4c-4.2,2.1-8.4,4.2-12.5,4.2H89.9c-4.2,0-9.4-1-12.5-4.2l-14.6-10.4L40.8,383
	H460.8z"/>
<polygon class="st0" points="460.8,383 438.9,399.7 62.7,399.7 40.8,383 "/>
<path class="st0" d="M458.7,41.3H42.8c-11.5,0-20.9,9.4-20.9,20.9v287.3h458.7V62.2C479.6,50.7,470.2,41.3,458.7,41.3z M453,322.9
	H48.6v-255H453V322.9z"/>
<path class="st0" d="M266.4,362.1h-31.3c-3.1,0-5.2,2.1-5.2,5.2c0,3.1,2.1,5.2,5.2,5.2h31.3c3.1,0,5.2-2.1,5.2-5.2
	C270.6,364.1,268.5,362.1,266.4,362.1z"/>
<path class="st0" d="M480.7,139.5H310.3c-11.5,0-20.9,9.4-20.9,20.9v280c0,11.5,9.4,20.9,20.9,20.9h170.3c11.5,0,20.9-9.4,20.9-20.9
	v-280C501.6,148.9,492.1,139.5,480.7,139.5z M368.8,156.2h53.3c2.1,0,3.1,1,3.1,3.1c0,2.1-1,3.1-3.1,3.1h-53.3c-2.1,0-3.1-1-3.1-3.1
	C365.7,157.3,366.8,156.2,368.8,156.2z M416.9,436.2c0,4.2-3.1,7.3-7.3,7.3h-32.4c-4.2,0-7.3-3.1-7.3-7.3c0-4.2,3.1-7.3,7.3-7.3
	h32.4C413.8,428.9,418,432.1,416.9,436.2z M485,412.3H306.4V178.3H485V412.3z"/>
<polygon class="st0" points="317.6,187.6 262.3,187.6 262.3,168.8 216.3,207.4 262.3,247.1 262.3,228.3 317.6,228.3 "/>
<polygon class="st1" points="277.9,281.6 334.4,281.6 334.4,300.4 380.3,261.7 334.4,222 334.4,240.8 277.9,240.8 "/>
</svg>
