<?xml version="1.0" encoding="utf-8"?>
<!-- Generator: Adobe Illustrator 25.0.0, SVG Export Plug-In . SVG Version: 6.00 Build 0)  -->
<svg version="1.1" id="Layer_1" xmlns="http://www.w3.org/2000/svg" xmlns:xlink="http://www.w3.org/1999/xlink" x="0px" y="0px"
	 viewBox="0 0 576 512" style="enable-background:new 0 0 576 512;" xml:space="preserve">
<style type="text/css">
	.st0{fill:#F7C331;}
</style>
<path class="st0" d="M626.4,87.2c-8.1-30.6-32.1-54.7-62.5-62.9C508.7,9.4,287.6,9.4,287.6,9.4S66.5,9.4,11.4,24.3
	C-19,32.4-43,56.6-51.1,87.2c-14.8,55.5-14.8,171.3-14.8,171.3s0,115.8,14.8,171.3c8.1,30.6,32.1,53.7,62.5,61.9
	c55.1,14.9,276.2,14.9,276.2,14.9s221.1,0,276.2-14.9c30.4-8.2,54.4-31.3,62.5-61.9c14.8-55.5,14.8-171.3,14.8-171.3
	S641.1,142.7,626.4,87.2z M215.3,363.6V153.3l184.8,105.1L215.3,363.6L215.3,363.6z"/>
</svg>
